<svg width="39" height="31" viewBox="0 0 39 31" fill="none" xmlns="http://www.w3.org/2000/svg">
<path d="M35.1 26.6718H31.2V10.5059L19.5 17.4341L7.8 10.5059V26.6718H3.9V4.50145H6.24L19.5 12.3534L32.76 4.50145H35.1V26.6718ZM35.1 0.806396H3.9C1.7355 0.806396 0 2.4507 0 4.50145V26.6718C0 27.6518 0.410892 28.5916 1.14228 29.2846C1.87368 29.9775 2.86566 30.3668 3.9 30.3668H35.1C36.1343 30.3668 37.1263 29.9775 37.8577 29.2846C38.5891 28.5916 39 27.6518 39 26.6718V4.50145C39 3.52146 38.5891 2.58161 37.8577 1.88865C37.1263 1.1957 36.1343 0.806396 35.1 0.806396Z" fill="#1DC9FF"/>
</svg>
