<svg width="39" height="38" viewBox="0 0 39 38" fill="none" xmlns="http://www.w3.org/2000/svg">
<path fill-rule="evenodd" clip-rule="evenodd" d="M11.4607 0.549555C13.5401 0.458273 14.2031 0.437988 19.5 0.437988C24.7969 0.437988 25.4599 0.459964 27.5375 0.549555C29.6152 0.639147 31.0334 0.955253 32.2743 1.41335C33.5737 1.8816 34.7525 2.61354 35.7275 3.56017C36.7203 4.4882 37.4861 5.61064 37.9754 6.85139C38.4575 8.03468 38.7873 9.38701 38.883 11.3648C38.9787 13.351 39 13.9832 39 19.0325C39 24.0834 38.977 24.7156 38.883 26.6985C38.789 28.6762 38.4575 30.0286 37.9754 31.2119C37.4861 32.4528 36.719 33.5771 35.7275 34.5065C34.7525 35.4531 33.5737 36.1833 32.2743 36.6499C31.0334 37.1097 29.6152 37.4241 27.5411 37.5154C25.4599 37.6067 24.7969 37.627 19.5 37.627C14.2031 37.627 13.5401 37.605 11.4607 37.5154C9.38659 37.4258 7.96841 37.1097 6.7275 36.6499C5.42618 36.1833 4.24714 35.4518 3.27245 34.5065C2.2804 33.5779 1.51269 32.4541 1.02286 31.2135C0.542455 30.0303 0.212727 28.6779 0.117 26.7002C0.0212727 24.7139 0 24.0817 0 19.0325C0 13.9815 0.0230454 13.3493 0.117 11.3682C0.210955 9.38701 0.542455 8.03468 1.02286 6.85139C1.51342 5.61077 2.28171 4.48704 3.27423 3.55848C4.24753 2.6127 5.42538 1.88066 6.72573 1.41335C7.96664 0.955253 9.38482 0.640837 11.4589 0.549555H11.4607ZM27.3798 3.89656C25.3234 3.80697 24.7065 3.78838 19.5 3.78838C14.2935 3.78838 13.6766 3.80697 11.6202 3.89656C9.71809 3.97939 8.68636 4.28197 7.99855 4.53723C7.08914 4.87531 6.43855 5.27594 5.75605 5.92674C5.10908 6.52692 4.61118 7.25757 4.29886 8.06511C4.03118 8.72099 3.71386 9.7048 3.627 11.5186C3.53305 13.4795 3.51355 14.0677 3.51355 19.0325C3.51355 23.9972 3.53305 24.5855 3.627 26.5463C3.71386 28.3601 4.03118 29.344 4.29886 29.9998C4.61086 30.8062 5.109 31.5381 5.75605 32.1382C6.38536 32.7552 7.15295 33.2302 7.99855 33.5277C8.68636 33.783 9.71809 34.0856 11.6202 34.1684C13.6766 34.258 14.2917 34.2766 19.5 34.2766C24.7083 34.2766 25.3234 34.258 27.3798 34.1684C29.2819 34.0856 30.3136 33.783 31.0015 33.5277C31.9109 33.1896 32.5615 32.789 33.244 32.1382C33.891 31.5381 34.3891 30.8062 34.7011 29.9998C34.9688 29.344 35.2861 28.3601 35.373 26.5463C35.467 24.5855 35.4865 23.9972 35.4865 19.0325C35.4865 14.0677 35.467 13.4795 35.373 11.5186C35.2861 9.7048 34.9688 8.72099 34.7011 8.06511C34.3466 7.19793 33.9265 6.57755 33.244 5.92674C32.6145 5.30986 31.8483 4.83509 31.0015 4.53723C30.3136 4.28197 29.2819 3.97939 27.3798 3.89656ZM17.0093 24.7646C18.4003 25.3168 19.9492 25.3913 21.3914 24.9755C22.8336 24.5596 24.0796 23.6793 24.9168 22.4847C25.7539 21.2901 26.1301 19.8555 25.9812 18.4258C25.8322 16.9961 25.1674 15.6601 24.1002 14.6459C23.4199 13.9976 22.5973 13.5011 21.6917 13.1924C20.786 12.8836 19.8199 12.7701 18.8627 12.8601C17.9055 12.9502 16.9812 13.2414 16.1563 13.713C15.3314 14.1845 14.6263 14.8246 14.0919 15.5872C13.5576 16.3497 13.2072 17.2158 13.0659 18.123C12.9247 19.0302 12.9961 19.9559 13.2751 20.8336C13.5541 21.7113 14.0338 22.5191 14.6795 23.1989C15.3252 23.8786 16.1209 24.4133 17.0093 24.7646ZM12.4126 12.2742C13.3434 11.3867 14.4483 10.6827 15.6643 10.2024C16.8804 9.72208 18.1838 9.47486 19.5 9.47486C20.8162 9.47486 22.1196 9.72208 23.3357 10.2024C24.5517 10.6827 25.6566 11.3867 26.5874 12.2742C27.5181 13.1617 28.2564 14.2154 28.7601 15.3749C29.2638 16.5345 29.523 17.7773 29.523 19.0325C29.523 20.2876 29.2638 21.5304 28.7601 22.69C28.2564 23.8496 27.5181 24.9032 26.5874 25.7907C24.7077 27.5831 22.1583 28.5901 19.5 28.5901C16.8417 28.5901 14.2923 27.5831 12.4126 25.7907C10.533 23.9983 9.47695 21.5673 9.47695 19.0325C9.47695 16.4976 10.533 14.0666 12.4126 12.2742ZM31.746 10.8982C31.9766 10.6908 32.1613 10.4413 32.289 10.1645C32.4167 9.88782 32.4849 9.58946 32.4895 9.28715C32.4941 8.98484 32.4351 8.68472 32.3159 8.40456C32.1967 8.12439 32.0198 7.86988 31.7956 7.65609C31.5714 7.44231 31.3045 7.27359 31.0107 7.15992C30.7168 7.04626 30.4021 6.98997 30.0851 6.99437C29.768 6.99878 29.4552 7.0638 29.165 7.18558C28.8747 7.30736 28.6131 7.48343 28.3955 7.70336C27.9724 8.13108 27.7408 8.69921 27.7497 9.28715C27.7587 9.87509 28.0077 10.4365 28.4437 10.8523C28.8797 11.2681 29.4685 11.5055 30.0851 11.514C30.7016 11.5226 31.2974 11.3017 31.746 10.8982Z" fill="#1DC9FF"/>
</svg>
