<svg width="201" height="58" viewBox="0 0 201 58" fill="none" xmlns="http://www.w3.org/2000/svg">
<path d="M87.0522 23H83.3901V15.3828H76.249V23H72.5869V5.22656H76.249V12.4287H83.3901V5.22656H87.0522V23ZM94.1567 23H90.4946V5.22656H94.1567V23ZM102.348 5.22656L106.913 18.1172L111.454 5.22656H116.264V23H112.589V18.1416L112.956 9.75537L108.158 23H105.644L100.858 9.76758L101.225 18.1416V23H97.5625V5.22656H102.348ZM129.716 19.3379H123.295L122.074 23H118.18L124.796 5.22656H128.19L134.843 23H130.949L129.716 19.3379ZM124.284 16.3716H128.727L126.493 9.71875L124.284 16.3716Z" fill="#1DC9FF"/>
<path d="M76.481 52H72.8188V34.2266H76.481V52ZM94.3398 52H90.6777L83.5488 40.3057V52H79.8867V34.2266H83.5488L90.6899 45.9453V34.2266H94.3398V52ZM97.5381 52V34.2266H103.007C104.569 34.2266 105.965 34.5806 107.194 35.2886C108.431 35.9884 109.395 36.9894 110.087 38.2915C110.779 39.5854 111.125 41.0584 111.125 42.7104V43.5283C111.125 45.1803 110.783 46.6493 110.099 47.9351C109.424 49.2209 108.467 50.2178 107.23 50.9258C105.993 51.6338 104.598 51.9919 103.043 52H97.5381ZM101.2 37.1929V49.0581H102.97C104.403 49.0581 105.497 48.5902 106.254 47.6543C107.011 46.7184 107.397 45.3797 107.414 43.6382V42.6982C107.414 40.8916 107.039 39.5244 106.291 38.5967C105.542 37.6608 104.447 37.1929 103.007 37.1929H101.2ZM128.397 43.5161C128.397 45.2658 128.088 46.7998 127.47 48.1182C126.851 49.4365 125.964 50.4538 124.809 51.1699C123.661 51.8861 122.343 52.2441 120.854 52.2441C119.381 52.2441 118.066 51.8901 116.911 51.1821C115.755 50.4741 114.86 49.465 114.225 48.1548C113.59 46.8364 113.269 45.3228 113.261 43.6138V42.7349C113.261 40.9852 113.574 39.4471 114.201 38.1206C114.835 36.786 115.727 35.7646 116.874 35.0566C118.03 34.3405 119.348 33.9824 120.829 33.9824C122.31 33.9824 123.625 34.3405 124.772 35.0566C125.928 35.7646 126.819 36.786 127.445 38.1206C128.08 39.4471 128.397 40.9811 128.397 42.7227V43.5161ZM124.687 42.7104C124.687 40.8468 124.353 39.4308 123.686 38.4624C123.018 37.494 122.066 37.0098 120.829 37.0098C119.6 37.0098 118.652 37.4899 117.985 38.4502C117.318 39.4023 116.98 40.8021 116.972 42.6494V43.5161C116.972 45.3309 117.305 46.7388 117.973 47.7397C118.64 48.7407 119.6 49.2412 120.854 49.2412C122.082 49.2412 123.026 48.7611 123.686 47.8008C124.345 46.8324 124.678 45.4245 124.687 43.5771V42.7104ZM145.512 52H141.85L134.721 40.3057V52H131.059V34.2266H134.721L141.862 45.9453V34.2266H145.512V52ZM159.403 44.2974H152.372V49.0581H160.624V52H148.71V34.2266H160.6V37.1929H152.372V41.4287H159.403V44.2974ZM171.989 47.3369C171.989 46.6452 171.745 46.1162 171.256 45.75C170.768 45.3757 169.889 44.985 168.62 44.5781C167.35 44.1631 166.345 43.7562 165.604 43.3574C163.586 42.2669 162.577 40.798 162.577 38.9507C162.577 37.9904 162.846 37.1359 163.383 36.3872C163.928 35.6304 164.705 35.0404 165.714 34.6172C166.732 34.194 167.871 33.9824 169.132 33.9824C170.402 33.9824 171.533 34.2144 172.526 34.6782C173.519 35.134 174.288 35.7809 174.833 36.6191C175.386 37.4574 175.663 38.4095 175.663 39.4756H172.001C172.001 38.6618 171.745 38.0311 171.232 37.5835C170.719 37.1278 169.999 36.8999 169.071 36.8999C168.176 36.8999 167.48 37.0911 166.984 37.4736C166.487 37.848 166.239 38.3444 166.239 38.9629C166.239 39.5407 166.528 40.0249 167.106 40.4155C167.692 40.8062 168.55 41.1724 169.682 41.5142C171.765 42.1408 173.283 42.918 174.235 43.8457C175.187 44.7734 175.663 45.929 175.663 47.3125C175.663 48.8506 175.081 50.0591 173.917 50.938C172.754 51.8088 171.187 52.2441 169.218 52.2441C167.851 52.2441 166.605 51.9959 165.482 51.4995C164.359 50.995 163.501 50.3073 162.907 49.4365C162.321 48.5658 162.028 47.5566 162.028 46.4092H165.702C165.702 48.3704 166.874 49.3511 169.218 49.3511C170.089 49.3511 170.768 49.1761 171.256 48.8262C171.745 48.4681 171.989 47.9717 171.989 47.3369ZM182.047 52H178.385V34.2266H182.047V52ZM195.707 48.3379H189.286L188.065 52H184.171L190.788 34.2266H194.181L200.834 52H196.94L195.707 48.3379ZM190.275 45.3716H194.718L192.484 38.7188L190.275 45.3716Z" fill="white"/>
<circle cx="46.6668" cy="29" r="9.33333" fill="#FAFF00"/>
<circle cx="9.33333" cy="29" r="9.33333" fill="#36FF04"/>
<circle cx="27.9998" cy="10.3333" r="9.33333" fill="#FF0000"/>
<circle cx="27.9998" cy="47.6667" r="9.33333" fill="#1DC9FF"/>
</svg>
