<svg width="39" height="28" viewBox="0 0 39 28" fill="none" xmlns="http://www.w3.org/2000/svg">
<path d="M39 13.9333C39 13.8429 39 13.7402 38.9957 13.621C38.9913 13.2882 38.9826 12.9143 38.9739 12.5157C38.9391 11.3693 38.8781 10.2271 38.7824 9.15052C38.6518 7.6672 38.4603 6.43042 38.1991 5.5018C37.9235 4.53271 37.3833 3.64888 36.6325 2.93865C35.8816 2.22842 34.9464 1.71666 33.9204 1.45453C32.6886 1.14225 30.2772 0.94913 26.8821 0.829971C25.2673 0.772447 23.5393 0.735466 21.8113 0.714922C21.2062 0.706704 20.6448 0.702595 20.1398 0.698486H18.8602C18.3552 0.702595 17.7938 0.706704 17.1887 0.714922C15.4607 0.735466 13.7327 0.772447 12.1179 0.829971C8.72277 0.953239 6.30703 1.14636 5.07958 1.45453C4.05322 1.71601 3.11769 2.22756 2.36674 2.93789C1.6158 3.64822 1.07581 4.5324 0.800893 5.5018C0.53538 6.43042 0.348214 7.6672 0.217634 9.15052C0.121875 10.2271 0.0609374 11.3693 0.026116 12.5157C0.013058 12.9143 0.00870529 13.2882 0.00435261 13.621C0.00435261 13.7402 0 13.8429 0 13.9333V14.1634C0 14.2538 -6.64815e-08 14.3565 0.00435261 14.4757C0.00870529 14.8085 0.0174106 15.1824 0.026116 15.581C0.0609374 16.7273 0.121875 17.8696 0.217634 18.9462C0.348214 20.4295 0.539732 21.6663 0.800893 22.5949C1.35804 24.563 2.99464 26.1162 5.07958 26.6422C6.30703 26.9544 8.72277 27.1475 12.1179 27.2667C13.7327 27.3242 15.4607 27.3612 17.1887 27.3818C17.7938 27.39 18.3552 27.3941 18.8602 27.3982H20.1398C20.6448 27.3941 21.2062 27.39 21.8113 27.3818C23.5393 27.3612 25.2673 27.3242 26.8821 27.2667C30.2772 27.1434 32.693 26.9503 33.9204 26.6422C36.0054 26.1162 37.642 24.5672 38.1991 22.5949C38.4646 21.6663 38.6518 20.4295 38.7824 18.9462C38.8781 17.8696 38.9391 16.7273 38.9739 15.581C38.9869 15.1824 38.9913 14.8085 38.9957 14.4757C38.9957 14.3565 39 14.2538 39 14.1634V13.9333ZM35.8661 14.147C35.8661 14.2332 35.8661 14.3277 35.8617 14.4387C35.8574 14.7592 35.8487 15.1125 35.84 15.4947C35.8095 16.5876 35.7486 17.6806 35.6571 18.6955C35.5396 20.0186 35.3742 21.1033 35.1696 21.8306C34.8998 22.7798 34.1076 23.5317 33.1065 23.7824C32.1924 24.0125 29.8898 24.1973 26.7603 24.3083C25.1759 24.3658 23.4696 24.4028 21.7677 24.4233C21.1714 24.4316 20.6186 24.4357 20.1224 24.4357H18.8776L17.2323 24.4233C15.5304 24.4028 13.8285 24.3658 12.2397 24.3083C9.11016 24.1932 6.80324 24.0125 5.89353 23.7824C4.89241 23.5276 4.10022 22.7798 3.83036 21.8306C3.62578 21.1033 3.46038 20.0186 3.34286 18.6955C3.25145 17.6806 3.19487 16.5876 3.16004 15.4947C3.14699 15.1125 3.14263 14.7551 3.13828 14.4387C3.13828 14.3277 3.13393 14.2291 3.13393 14.147V13.9497C3.13393 13.8634 3.13393 13.7689 3.13828 13.658C3.14263 13.3375 3.15134 12.9841 3.16004 12.602C3.19051 11.509 3.25145 10.4161 3.34286 9.40116C3.46038 8.07809 3.62578 6.99334 3.83036 6.26606C4.10022 5.3169 4.89241 4.56497 5.89353 4.31433C6.80759 4.08423 9.11016 3.89933 12.2397 3.78839C13.8241 3.73086 15.5304 3.69388 17.2323 3.67334C17.8286 3.66512 18.3814 3.66101 18.8776 3.66101H20.1224L21.7677 3.67334C23.4696 3.69388 25.1715 3.73086 26.7603 3.78839C29.8898 3.90344 32.1968 4.08423 33.1065 4.31433C34.1076 4.56908 34.8998 5.3169 35.1696 6.26606C35.3742 6.99334 35.5396 8.07809 35.6571 9.40116C35.7486 10.4161 35.8051 11.509 35.84 12.602C35.853 12.9841 35.8574 13.3416 35.8617 13.658C35.8617 13.7689 35.8661 13.8675 35.8661 13.9497V14.147ZM15.6261 19.5543L25.7243 14.0072L15.6261 8.5424V19.5543Z" fill="#1DC9FF"/>
</svg>
